<?xml version="1.0" encoding="utf-8"?>
<svg height="60" width="68" xmlns="http://www.w3.org/2000/svg"><path d="M 3.9581298828125 1.4774169921875 S 2.806427001953125 3.8359375 2.77459716796875 5.12548828125 S 2.77459716796875 6.0247802734375 2.77459716796875 6.924072265625 S 2.806427001953125 8.077880859375 2.8382568359375 9.231689453125 S 3.003662109375 10.42791748046875 3.1690673828125 11.6241455078125 S 3.33453369140625 12.9476318359375 3.5 14.2711181640625 S 3.697235107421875 15.8660888671875 3.89447021484375 17.4610595703125 S 4.059906005859375 18.8184814453125 4.225341796875 20.1759033203125 S 4.390777587890625 21.89813232421875 4.55621337890625 23.620361328125 S 4.65802001953125 25.181396484375 4.75982666015625 26.742431640625 S 4.791656494140625 28.099853515625 4.823486328125 29.457275390625 S 4.85528564453125 30.882568359375 4.8870849609375 32.307861328125 S 4.8870849609375 33.76708984375 4.8870849609375 35.226318359375 S 4.8870849609375 36.61767578125 4.8870849609375 38.009033203125 S 4.85528564453125 39.434326171875 4.823486328125 40.859619140625 S 4.588043212890625 42.217041015625 4.35260009765625 43.574462890625 S 4.12353515625 44.83856201171875 3.89447021484375 46.1026611328125 S 3.627227783203125 47.33282470703125 3.3599853515625 48.56298828125 S 3.13092041015625 49.682861328125 2.90185546875 50.802734375 S 2.70458984375 51.7020263671875 2.50732421875 52.601318359375 S 2.310089111328125 53.52606201171875 2.11285400390625 54.4508056640625 S 1.8774261474609375 55.8421630859375 1.641998291015625 57.2335205078125 L 1.578369140625 59.0321044921875" fill="none" stroke="black" stroke-width="1"/><path d="M 16.739796142578125 4.04348388671875 S 19.6896435546875 2.09761962890625 21.583756103515626 2.01481689453125 S 22.755913696289063 2.01481689453125 23.9280712890625 2.01481689453125 S 25.426301879882814 2.26322509765625 26.924532470703127 2.51163330078125 S 28.376149291992185 2.998099365234375 29.82776611328125 3.4845654296874997 S 31.279420166015626 4.08488525390625 32.731074218749995 4.685205078125 S 34.143895874023436 5.420079345703125 35.556717529296876 6.15495361328125 S 36.891911621093755 6.8794775390625 38.22710571289062 7.6040014648437495 S 39.27505920410157 8.2871240234375 40.3230126953125 8.97024658203125 S 41.37100341796875 9.746522216796874 42.418994140625 10.5227978515625 S 43.27289733886718 11.33012451171875 44.126800537109375 12.137451171875 S 44.77109069824219 12.94477783203125 45.415380859375 13.752104492187499 S 45.85787658691406 14.55943115234375 46.30037231445313 15.3667578125 S 46.781663208007814 16.9814111328125 47.2629541015625 18.596064453125 S 47.309530639648436 19.56899658203125 47.35610717773437 20.5419287109375 S 47.35610717773437 22.3635888671875 47.35610717773437 24.1852490234375 S 47.231903076171875 25.15818115234375 47.10769897460938 26.13111328125 S 46.781663208007814 27.135096435546874 46.45562744140625 28.13907958984375 S 46.0131689453125 29.11201171875 45.57071044921875 30.08494384765625 S 45.004010620117185 31.0578759765625 44.43731079101562 32.03080810546875 S 43.79302062988281 32.8795361328125 43.14873046875 33.72826416015625 S 42.38019897460937 34.494189453124996 41.61166748046875 35.26011474609375 S 40.76554565429687 35.994989013671876 39.919423828125 36.72986328125 S 39.034432373046876 37.41298583984375 38.14944091796875 38.0961083984375 S 37.179114990234375 38.74817993164062 36.2087890625 39.40025146484375 S 35.238463134765624 40.041972656249996 34.268137207031245 40.68369384765625 S 33.29777404785156 41.33576538085937 32.32741088867188 41.9878369140625 S 31.442456665039064 42.71236083984375 30.55750244140625 43.436884765625 S 29.664766845703127 44.16140869140625 28.772031249999998 44.8859326171875 S 27.3980419921875 46.30392944335937 26.024052734374997 47.72192626953125 S 25.10026611328125 49.057120361328124 24.1764794921875 50.392314453124996 S 23.9280712890625 51.44804931640625 23.6796630859375 52.5037841796875 S 23.8038671875 53.714774169921874 23.9280712890625 54.92576416015625 S 24.85960205078125 55.526083984375 25.7911328125 56.12640380859375 S 27.366990966796877 56.612869873046876 28.94284912109375 57.0993359375 S 29.952007446289063 57.3063427734375 30.961165771484374 57.513349609375 S 32.28857849121094 57.710006103515624 33.615991210937494 57.90666259765625 S 34.99001770019531 58.03086669921875 36.364044189453125 58.155070800781246 S 37.90106994628906 58.27927490234375 39.438095703125 58.40347900390625 S 41.091544189453124 58.444880371093745 42.74499267578125 58.48628173828125 S 44.44505493164063 58.48628173828125 46.1451171875 58.48628173828125 S 47.91502563476563 58.48628173828125 49.68493408203125 58.48628173828125 S 51.38499633789063 58.48628173828125 53.08505859375 58.48628173828125 S 54.73850708007812 58.40347900390625 56.391955566406246 58.32067626953125 S 57.96781372070313 58.082618408203125 59.543671875 57.844560546875 S 61.041865234374995 57.513349609375 62.54005859375 57.182138671875 S 63.9063037109375 56.73707397460937 65.272548828125 56.29200927734375 L 67.53927368164062 55.3190771484375" fill="none" stroke="black" stroke-width="1"/></svg>