<?xml version="1.0" standalone="no"?>
<!DOCTYPE svg PUBLIC "-//W3C//DTD SVG 1.1//EN"
 "http://www.w3.org/Graphics/SVG/1.1/DTD/svg11.dtd">
<!-- Created with svg_stack (http://github.com/astraw/svg_stack) -->
<svg xmlns="http://www.w3.org/2000/svg" xmlns:sodipodi="http://sodipodi.sourceforge.net/DTD/sodipodi-0.dtd" version="1.1" width="68.0" height="114.0">
  <defs/>
  <g id="id0:id0" transform="translate(0.0,18.0)">
    <path d="M2.028228759765625 2.89453125 S 2.09185791015625 2.1988525390625, 2.09185791015625 3.4205322265625 S 2.155487060546875 4.9476318359375, 2.2191162109375 6.4747314453125 S 2.2891082763671875 7.39947509765625, 2.359100341796875 8.32421875 S 2.4227294921875 9.48651123046875, 2.486358642578125 10.6488037109375 S 2.588165283203125 11.81109619140625, 2.689971923828125 12.973388671875 S 2.7854156494140625 14.262939453125, 2.880859375 15.552490234375 S 2.982666015625 16.977783203125, 3.08447265625 18.403076171875 S 3.2180938720703125 20.1337890625, 3.351715087890625 21.864501953125 S 3.4853363037109375 23.51885986328125, 3.61895751953125 25.1732177734375 S 3.7462158203125 27.294189453125, 3.87347412109375 29.4151611328125 S 4.0070953369140625 31.637939453125, 4.140716552734375 33.8607177734375 S 4.242523193359375 36.08349609375, 4.344329833984375 38.3062744140625 S 4.3761444091796875 40.15576171875, 4.407958984375 42.0052490234375 S 4.407958984375 43.93109130859375, 4.407958984375 45.85693359375 S 4.407958984375 47.74884033203125, 4.407958984375 49.6407470703125 S 4.407958984375 51.49871826171875, 4.407958984375 53.356689453125 S 4.407958984375 55.11285400390625, 4.407958984375 56.8690185546875 S 4.407958984375 58.52337646484375, 4.407958984375 60.177734375 S 4.407958984375 61.569091796875, 4.407958984375 62.96044921875 S 4.4397735595703125 64.31787109375, 4.471588134765625 65.67529296875 S 4.509765625 66.87152099609375, 4.547943115234375 68.0677490234375 S 4.5797576904296875 69.06036376953125, 4.611572265625 70.052978515625 S 4.6433868408203125 70.9862060546875, 4.675201416015625 71.91943359375 S 4.73883056640625 73.242919921875, 4.802459716796875 74.56640625 S 5.0378875732421875 75.66082763671875, 5.2733154296875 76.7552490234375 S 5.438751220703125 75.72869873046875, 5.60418701171875 74.7021484375 L 5.795074462890625 73.175048828125" stroke="black" stroke-width="1" fill="none"/>
  </g>
  <g id="id1:id1" transform="translate(7.0,0.0)">
    <path d="M3.012969970703125 4.65087890625 S 4.361907958984375 2.02935791015625, 4.921844482421875 1.52880859375 S 5.354522705078125 2.58929443359375, 5.787200927734375 3.6497802734375 S 5.889007568359375 5.0750732421875, 5.990814208984375 6.5003662109375 S 6.0226287841796875 7.36572265625, 6.054443359375 8.2310791015625 S 6.0862579345703125 9.15582275390625, 6.118072509765625 10.08056640625 S 6.118072509765625 11.0477294921875, 6.118072509765625 12.014892578125 S 6.118072509765625 13.00750732421875, 6.118072509765625 14.0001220703125 S 6.1498870849609375 15.1878662109375, 6.18170166015625 16.3756103515625 S 6.18170166015625 17.60577392578125, 6.18170166015625 18.8359375 S 6.18170166015625 20.12548828125, 6.18170166015625 21.4150390625 S 6.2135162353515625 22.84033203125, 6.245330810546875 24.265625 S 6.245330810546875 25.96240234375, 6.245330810546875 27.6591796875 S 6.245330810546875 29.24566650390625, 6.245330810546875 30.8321533203125 S 6.245330810546875 32.4271240234375, 6.245330810546875 34.0220947265625 S 6.118072509765625 35.5831298828125, 5.990814208984375 37.1441650390625 S 5.7553863525390625 38.73065185546875, 5.51995849609375 40.317138671875 S 5.2908935546875 41.70849609375, 5.06182861328125 43.099853515625 S 4.7627716064453125 44.78814697265625, 4.463714599609375 46.4764404296875 S 4.234649658203125 47.70660400390625, 4.005584716796875 48.936767578125 S 3.73834228515625 50.226318359375, 3.471099853515625 51.515869140625 S 3.2738494873046875 52.5169677734375, 3.07659912109375 53.51806640625 S 2.911163330078125 54.47674560546875, 2.7457275390625 55.4354248046875 S 2.6439208984375 56.7249755859375, 2.5421142578125 58.0145263671875 S 2.5739288330078125 58.981689453125, 2.605743408203125 59.9488525390625 S 3.4011077880859375 59.7791748046875, 4.19647216796875 59.6094970703125 S 4.96002197265625 58.71868896484375, 5.72357177734375 57.827880859375 S 6.4171295166015625 57.25946044921875, 7.110687255859375 56.6910400390625 S 8.071487426757812 56.198974609375, 9.03228759765625 55.7069091796875 S 9.757659912109375 55.4014892578125, 10.4830322265625 55.0960693359375 S 11.214767456054688 54.83306884765625, 11.946502685546875 54.570068359375 S 12.773681640625 54.30706787109375, 13.600860595703125 54.0440673828125 S 14.561660766601562 53.78106689453125, 15.5224609375 53.51806640625 S 16.610519409179688 53.22113037109375, 17.698577880859375 52.9241943359375 S 18.659378051757812 52.6527099609375, 19.62017822265625 52.3812255859375 S 20.848220825195312 52.01641845703125, 22.076263427734375 51.651611328125 S 23.23431396484375 51.25286865234375, 24.392364501953125 50.8541259765625 S 25.518600463867188 50.45538330078125, 26.64483642578125 50.056640625 S 27.802886962890625 49.5985107421875, 28.9609375 49.140380859375 S 30.048995971679688 48.67376708984375, 31.137054443359375 48.2071533203125 S 32.129669189453125 47.74053955078125, 33.122283935546875 47.27392578125 S 34.318511962890625 46.7479248046875, 35.514739990234375 46.221923828125 S 36.50736999511719 45.68743896484375, 37.5 45.1529541015625 S 38.358978271484375 44.728759765625, 39.21795654296875 44.3045654296875 S 40.1087646484375 43.77008056640625, 40.99957275390625 43.235595703125 S 41.794952392578125 42.76898193359375, 42.59033203125 42.3023681640625 S 43.85015869140625 41.47943115234375, 45.1099853515625 40.656494140625 S 46.166259765625 39.9268798828125, 47.2225341796875 39.197265625 S 48.2532958984375 38.2979736328125, 49.2840576171875 37.398681640625 S 49.91400146484375 36.7030029296875, 50.5439453125 36.00732421875 S 50.9066162109375 35.01470947265625, 51.269287109375 34.0220947265625 S 51.69561767578125 32.82586669921875, 52.1219482421875 31.629638671875 S 52.55462646484375 30.46734619140625, 52.9873046875 29.3050537109375 S 53.51544189453125 27.65069580078125, 54.0435791015625 25.996337890625 S 54.40625 24.74072265625, 54.7689208984375 23.485107421875 S 55.0679931640625 21.9580078125, 55.3670654296875 20.430908203125 S 55.532470703125 19.6673583984375, 55.6978759765625 18.90380859375 S 55.831512451171875 18.1402587890625, 55.96514892578125 17.376708984375 S 56.264190673828125 15.849609375, 56.563232421875 14.322509765625 S 56.696868896484375 13.39776611328125, 56.83050537109375 12.4730224609375 S 56.925933837890625 11.607666015625, 57.0213623046875 10.7423095703125 S 57.154998779296875 9.91937255859375, 57.28863525390625 9.096435546875 S 57.422271728515625 8.3328857421875, 57.555908203125 7.5693359375 S 57.854949951171875 6.44097900390625, 58.15399169921875 5.3126220703125 S 58.548492431640625 4.18426513671875, 58.9429931640625 3.055908203125 S 59.01300048828125 3.9552001953125, 59.0830078125 4.8544921875 S 59.0830078125 6.2119140625, 59.0830078125 7.5693359375 S 59.0830078125 8.42620849609375, 59.0830078125 9.2830810546875 S 59.0447998046875 10.250244140625, 59.006591796875 11.2174072265625 S 58.911163330078125 12.3712158203125, 58.81573486328125 13.5250244140625 S 58.71392822265625 14.68731689453125, 58.61212158203125 15.849609375 S 58.516693115234375 17.173095703125, 58.4212646484375 18.49658203125 S 58.287628173828125 20.091552734375, 58.15399169921875 21.6865234375 S 58.020355224609375 23.145751953125, 57.88671875 24.60498046875 S 57.65765380859375 26.46295166015625, 57.4285888671875 28.3209228515625 S 57.161376953125 30.14495849609375, 56.8941650390625 31.968994140625 S 56.62689208984375 33.82696533203125, 56.359619140625 35.6849365234375 S 56.02874755859375 37.670166015625, 55.6978759765625 39.6553955078125 S 55.30340576171875 42.03936767578125, 54.908935546875 44.42333984375 S 54.57806396484375 46.41705322265625, 54.2471923828125 48.4107666015625 S 53.8463134765625 50.99835205078125, 53.4454345703125 53.5859375 S 53.050933837890625 55.86810302734375, 52.65643310546875 58.1502685546875 S 52.293731689453125 60.5087890625, 51.9310302734375 62.8673095703125 S 51.530181884765625 65.25128173828125, 51.12933349609375 67.63525390625 S 50.734832763671875 69.98529052734375, 50.34033203125 72.3353271484375 S 50.041259765625 74.32904052734375, 49.7421875 76.32275390625 S 49.315887451171875 78.70672607421875, 48.88958740234375 81.0906982421875 S 48.5587158203125 83.211669921875, 48.22784423828125 85.3326416015625 S 47.890594482421875 87.45361328125, 47.5533447265625 89.5745849609375 S 47.26068115234375 91.39862060546875, 46.968017578125 93.22265625 S 46.6689453125 95.08062744140625, 46.369873046875 96.9385986328125 S 46.172607421875 98.4317626953125, 45.975341796875 99.9249267578125 S 45.8099365234375 101.4180908203125, 45.64453125 102.9112548828125 S 45.57452392578125 104.2347412109375, 45.5045166015625 105.5582275390625 S 45.5045166015625 106.55084228515625, 45.5045166015625 107.54345703125 S 45.5045166015625 108.4427490234375, 45.5045166015625 109.342041015625 S 45.53631591796875 110.40252685546875, 45.568115234375 111.4630126953125 S 46.064453125 112.192626953125, 46.560791015625 112.9222412109375 S 46.79620361328125 112.056884765625, 47.0316162109375 111.1915283203125 L 47.2225341796875 109.138427734375" stroke="black" stroke-width="1" fill="none"/>
  </g>
</svg>
