<svg xmlns="http://www.w3.org/2000/svg" xmlns:xlink="http://www.w3.org/1999/xlink" width="500" zoomAndPan="magnify" viewBox="0 0 375 374.999991" height="500" preserveAspectRatio="xMidYMid meet" version="1.0"><defs><clipPath id="66c0c14ff1"><path d="M 35.039062 63.074219 L 139 63.074219 L 139 312.675781 L 35.039062 312.675781 Z M 35.039062 63.074219 " clip-rule="nonzero"/></clipPath><clipPath id="ea20c9ae4e"><path d="M 37.351562 63.074219 C 52.050781 64.5 59.25 65.851562 64.351562 67.199219 C 68.476562 68.324219 71.925781 69.375 75.449219 70.949219 C 79.050781 72.601562 82.425781 74.476562 85.726562 76.875 C 89.25 79.425781 92.625 82.5 95.925781 85.949219 C 99.675781 89.773438 103.351562 94.5 106.875 99.074219 C 110.550781 103.875 115.199219 109.949219 117.449219 114.226562 C 118.875 117 119.851562 119.398438 120.148438 121.574219 C 120.375 123.226562 120.148438 124.5 119.773438 126 C 119.398438 127.726562 118.574219 129.449219 117.675781 131.175781 C 116.699219 132.976562 115.800781 134.476562 114.226562 136.425781 C 111.824219 139.425781 107.398438 144.074219 104.324219 147 C 101.925781 149.25 100.273438 150.601562 97.5 152.699219 C 93.601562 155.699219 87.375 160.199219 82.800781 163.199219 C 78.976562 165.675781 76.050781 167.699219 72 169.5 C 67.425781 171.523438 59.023438 175.199219 56.625 174.375 C 55.648438 174 54.75 172.5 55.050781 171.976562 C 55.5 171 60.148438 171.523438 63.898438 171.601562 C 70.648438 171.75 83.773438 173.101562 91.949219 174.074219 C 98.398438 174.824219 104.625 175.5 109.050781 176.699219 C 112.050781 177.523438 113.925781 178.199219 116.25 179.625 C 118.875 181.273438 121.574219 183.75 123.824219 186.449219 C 126.226562 189.300781 128.101562 192.75 129.976562 196.351562 C 132 200.324219 134.023438 204.523438 135.449219 209.25 C 137.023438 214.648438 138.226562 222.226562 138.675781 227.101562 C 138.976562 230.398438 139.125 232.648438 138.824219 235.425781 C 138.523438 238.351562 138 241.199219 136.800781 244.351562 C 135.300781 248.25 132.523438 252.824219 129.824219 256.648438 C 127.050781 260.550781 124.199219 263.699219 120.375 267.449219 C 115.351562 272.324219 108.148438 278.25 101.773438 282.824219 C 95.625 287.25 88.050781 290.699219 82.648438 294.75 C 78.226562 298.050781 74.925781 302.25 71.25 304.875 C 68.25 307.050781 65.550781 308.625 62.476562 309.824219 C 59.398438 311.023438 54.824219 312.375 52.648438 311.925781 C 51.449219 311.699219 50.398438 310.949219 50.101562 310.199219 C 49.800781 309.449219 50.398438 307.800781 51 307.273438 C 51.523438 306.824219 52.800781 306.75 53.398438 306.976562 C 53.925781 307.125 54.375 307.574219 54.601562 308.023438 C 54.898438 308.625 55.050781 309.824219 54.824219 310.425781 C 54.675781 310.949219 54.148438 311.398438 53.699219 311.625 C 53.25 311.851562 52.648438 312.074219 52.125 311.925781 C 51.449219 311.773438 50.398438 311.175781 50.175781 310.5 C 49.875 309.75 50.023438 308.324219 50.773438 307.5 C 52.273438 305.851562 58.875 305.925781 62.101562 304.648438 C 64.726562 303.601562 66.226562 302.625 68.773438 300.898438 C 72.824219 298.125 78.226562 292.648438 83.625 288.976562 C 89.398438 285 96.300781 282.375 102.375 278.023438 C 108.824219 273.375 116.398438 266.925781 121.199219 261.824219 C 124.726562 258.074219 127.125 254.550781 129.300781 251.175781 C 131.101562 248.398438 132.523438 245.925781 133.5 243.226562 C 134.476562 240.675781 135 238.050781 135.300781 235.425781 C 135.601562 232.800781 135.449219 230.398438 135.226562 227.398438 C 134.925781 223.574219 134.398438 218.699219 133.273438 214.5 C 132.148438 210.300781 130.351562 206.101562 128.550781 202.199219 C 126.824219 198.449219 125.023438 194.773438 122.625 191.550781 C 120.226562 188.398438 117 184.949219 114.300781 183 C 112.273438 181.574219 110.699219 180.976562 108.300781 180.226562 C 105.148438 179.25 102 178.875 96.976562 178.273438 C 87.148438 177.074219 56.476562 178.050781 52.949219 174.824219 C 52.050781 174 51.898438 172.726562 52.5 171.824219 C 53.925781 169.574219 65.324219 168.675781 70.425781 166.5 C 74.476562 164.773438 77.175781 162.824219 80.925781 160.425781 C 85.425781 157.5 90.824219 153.675781 95.324219 150.074219 C 99.601562 146.625 104.324219 142.351562 107.175781 139.425781 C 108.976562 137.550781 110.023438 136.199219 111.300781 134.550781 C 112.5 132.976562 113.625 131.625 114.449219 129.824219 C 115.425781 127.648438 116.625 124.726562 116.625 122.324219 C 116.625 120.148438 115.800781 118.425781 114.601562 116.023438 C 112.574219 111.976562 107.773438 105.898438 104.175781 101.175781 C 100.726562 96.675781 97.125 92.175781 93.523438 88.425781 C 90.375 85.125 87.226562 82.199219 83.851562 79.726562 C 80.773438 77.476562 77.625 75.601562 74.25 74.101562 C 70.875 72.601562 67.5 71.625 63.523438 70.574219 C 58.574219 69.300781 51.675781 67.949219 46.800781 67.351562 C 43.050781 66.898438 38.398438 67.648438 36.75 66.675781 C 35.925781 66.148438 35.398438 65.25 35.476562 64.648438 C 35.550781 64.050781 37.351562 63.074219 37.351562 63.074219 " clip-rule="nonzero"/></clipPath><clipPath id="8762302db6"><path d="M 159.652344 93.398438 L 291.324219 93.398438 L 291.324219 268 L 159.652344 268 Z M 159.652344 93.398438 " clip-rule="nonzero"/></clipPath><clipPath id="859f62999b"><path d="M 163.726562 93.976562 C 192 93.898438 193.875 94.199219 196.273438 94.949219 C 198.675781 95.625 201 96.675781 203.25 97.875 C 205.5 99.074219 207.675781 100.574219 209.699219 102.226562 C 211.800781 103.875 213.824219 105.75 215.699219 107.699219 C 217.574219 109.726562 219 111.523438 220.800781 114.148438 C 223.273438 117.824219 226.648438 123.148438 228.824219 128.023438 C 231 132.898438 232.800781 138.226562 233.925781 143.398438 C 234.976562 148.351562 235.648438 154.125 235.574219 158.324219 C 235.5 161.324219 235.199219 163.5 234.449219 166.125 C 233.625 169.050781 232.273438 172.050781 230.699219 175.050781 C 229.050781 178.273438 227.773438 180.300781 224.625 184.800781 C 216.300781 196.726562 186.300781 232.273438 175.574219 246.976562 C 169.949219 254.699219 165.226562 265.273438 163.273438 265.199219 C 162.601562 265.199219 161.625 263.773438 162 263.101562 C 164.476562 258.148438 281.851562 249.226562 289.125 249.523438 C 289.800781 249.523438 289.949219 249.523438 290.25 249.75 C 290.625 250.050781 291.074219 250.726562 291 251.25 C 290.925781 251.851562 289.800781 253.050781 289.199219 253.050781 C 288.675781 253.050781 287.625 252.226562 287.550781 251.699219 C 287.476562 251.101562 288.375 249.675781 288.976562 249.523438 C 289.5 249.375 290.625 249.976562 290.851562 250.5 C 291.074219 251.023438 291.148438 251.925781 290.476562 252.601562 C 287.023438 255.898438 256.949219 256.875 237.675781 258.976562 C 214.5 261.523438 166.949219 270.300781 161.101562 266.625 C 159.898438 265.875 159.824219 264.898438 159.976562 263.625 C 160.273438 261 163.648438 257.550781 167.476562 252.300781 C 177.148438 238.875 213 195.449219 221.773438 183 C 224.851562 178.574219 225.976562 176.851562 227.550781 173.773438 C 228.976562 171 230.398438 168.300781 231.148438 165.601562 C 231.824219 163.199219 232.125 161.324219 232.199219 158.550781 C 232.273438 154.648438 231.449219 148.273438 230.699219 144.300781 C 230.175781 141.375 229.726562 139.648438 228.675781 136.800781 C 227.25 132.824219 224.851562 127.199219 222.300781 122.773438 C 219.75 118.351562 216.148438 113.324219 213.375 110.175781 C 211.425781 107.925781 209.773438 106.574219 207.824219 105 C 205.949219 103.5 203.925781 102.148438 201.898438 101.023438 C 199.875 99.898438 198.226562 99 195.675781 98.324219 C 191.925781 97.351562 186.375 97.050781 181.351562 96.898438 C 175.726562 96.75 166.050781 98.851562 163.425781 97.648438 C 162.449219 97.199219 161.851562 96.300781 161.925781 95.699219 C 162 95.101562 163.726562 93.976562 163.726562 93.976562 " clip-rule="nonzero"/></clipPath><clipPath id="ed5a54bbd2"><path d="M 299.703125 83 L 340 83 L 340 257 L 299.703125 257 Z M 299.703125 83 " clip-rule="nonzero"/></clipPath><clipPath id="347508621e"><path d="M 299.851562 135.601562 C 324 90.148438 326.25 86.25 328.574219 84.601562 C 329.925781 83.699219 331.648438 83.101562 332.398438 83.550781 C 333 83.925781 332.925781 84.75 333.074219 86.175781 C 333.601562 91.648438 330.976562 113.773438 330.449219 126.601562 C 330 138.148438 329.625 148.648438 330.074219 159.675781 C 330.523438 170.773438 332.476562 181.800781 333.375 193.050781 C 334.273438 204.523438 334.425781 216.976562 335.550781 227.773438 C 336.523438 237.375 340.5 250.875 339.523438 254.699219 C 339.226562 255.898438 338.625 256.574219 337.949219 256.800781 C 337.273438 257.023438 335.851562 256.425781 335.476562 255.824219 C 335.101562 255.300781 335.175781 254.25 335.398438 253.726562 C 335.625 253.199219 336.375 252.601562 336.976562 252.523438 C 337.648438 252.449219 339 253.199219 339.375 253.726562 C 339.675781 254.101562 339.675781 254.699219 339.523438 255.148438 C 339.375 255.675781 338.773438 256.574219 338.175781 256.726562 C 337.5 256.949219 336.300781 256.726562 335.625 255.976562 C 334.425781 254.625 334.5 251.324219 333.976562 247.050781 C 332.625 236.699219 331.351562 208.5 329.925781 193.273438 C 328.875 181.949219 327.074219 173.625 326.550781 163.726562 C 326.023438 153.898438 326.398438 144.976562 326.699219 134.101562 C 327 120.824219 328.050781 96.449219 328.726562 89.699219 C 328.949219 87.675781 328.726562 86.023438 329.324219 85.800781 C 329.773438 85.574219 331.5 86.550781 331.574219 87.375 C 331.726562 88.800781 327.601562 91.726562 325.726562 94.273438 C 323.625 97.125 322.050781 99.523438 319.726562 103.726562 C 315.375 111.449219 306.824219 134.773438 303.148438 137.550781 C 302.175781 138.300781 301.199219 138.300781 300.675781 138 C 300.148438 137.699219 299.851562 135.601562 299.851562 135.601562 " clip-rule="nonzero"/></clipPath></defs><g clip-path="url(#66c0c14ff1)"><g clip-path="url(#ea20c9ae4e)"><path fill="#000000" d="M 32.476562 60.074219 L 141.824219 60.074219 L 141.824219 314.925781 L 32.476562 314.925781 Z M 32.476562 60.074219 " fill-opacity="1" fill-rule="nonzero"/></g></g><g clip-path="url(#8762302db6)"><g clip-path="url(#859f62999b)"><path fill="#000000" d="M 156.976562 90.601562 L 294 90.601562 L 294 269.625 L 156.976562 269.625 Z M 156.976562 90.601562 " fill-opacity="1" fill-rule="nonzero"/></g></g><g clip-path="url(#ed5a54bbd2)"><g clip-path="url(#347508621e)"><path fill="#000000" d="M 296.851562 80.550781 L 342.523438 80.550781 L 342.523438 259.800781 L 296.851562 259.800781 Z M 296.851562 80.550781 " fill-opacity="1" fill-rule="nonzero"/></g></g></svg>