<svg version="1.1" id="Layer_1" xmlns="http://www.w3.org/2000/svg" xmlns:xlink="http://www.w3.org/1999/xlink" x="0px" y="0px"
	 width="100%" viewBox="0 0 224 320" enable-background="new 0 0 224 320" xml:space="preserve">
<path fill="#000000" opacity="1.000000" stroke="none" 
	d="
M170.635468,258.520569 
	C157.834518,276.076447 141.643723,286.598785 119.731934,288.621948 
	C103.370605,290.132629 88.274155,288.295593 74.276634,279.404205 
	C55.702774,267.605896 45.687420,249.854141 40.893135,229.201218 
	C35.828259,207.382599 38.129871,185.234390 40.468864,163.213806 
	C42.624134,142.922897 47.614983,123.276917 54.927578,104.312065 
	C65.742783,76.263382 84.814117,55.283901 111.754234,41.934986 
	C125.780411,34.984970 140.633362,33.249836 155.837296,38.524746 
	C169.626617,43.308868 177.995712,54.969402 177.329666,68.674347 
	C177.067535,74.068192 174.373428,78.555962 171.362091,82.710487 
	C169.456146,85.340004 166.416397,85.687248 163.225281,84.367172 
	C159.635468,82.882164 158.190292,80.209221 158.257050,76.530533 
	C158.392685,69.053917 154.590271,64.841309 147.002518,64.302429 
	C132.590576,63.278931 121.478523,70.497643 110.998528,79.031387 
	C95.072670,91.999634 86.776283,109.591362 81.411690,128.845886 
	C78.424339,139.568069 76.545494,150.541458 74.572426,161.483932 
	C74.285400,163.075729 74.532593,164.763855 74.532593,166.468140 
	C76.776154,167.162598 77.982033,165.452499 79.391731,164.528091 
	C91.838638,156.365952 105.069466,150.280090 120.265114,150.233963 
	C141.611649,150.169159 160.242462,156.564407 173.770065,174.132202 
	C180.104111,182.358017 182.349213,192.096649 183.144440,202.110367 
	C184.723984,222.000641 181.048584,240.856094 170.635468,258.520569 
M89.239418,205.734131 
	C87.990685,207.293259 86.568153,208.744141 85.519638,210.427948 
	C72.514847,231.312256 72.706642,225.704483 84.991516,245.092621 
	C85.789520,246.352051 86.815018,247.470627 87.764755,248.630096 
	C97.908127,261.013367 115.596733,260.487457 127.438843,256.314575 
	C136.227249,253.217743 142.323364,245.804581 146.405029,237.255768 
	C152.072311,225.386017 153.750885,212.798370 152.587067,199.790024 
	C152.280930,196.368393 150.684540,193.489441 148.245300,191.021317 
	C139.422043,182.093552 124.203300,180.781036 111.640785,187.954453 
	C103.476440,192.616409 96.546379,198.853256 89.239418,205.734131 
z"/>
</svg>