<svg xmlns="http://www.w3.org/2000/svg" xmlns:xlink="http://www.w3.org/1999/xlink" width="820" zoomAndPan="magnify" viewBox="0 0 615 884.999995" height="1180" preserveAspectRatio="xMidYMid meet" version="1.0"><defs><clipPath id="a8c984cc35"><path d="M 378 323 L 529 323 L 529 480 L 378 480 Z M 378 323 " clip-rule="nonzero"/></clipPath><clipPath id="28a2cb2fd1"><path d="M 465.199219 323.777344 L 528.957031 379.0625 L 442.054688 479.285156 L 378.296875 423.996094 Z M 465.199219 323.777344 " clip-rule="nonzero"/></clipPath><clipPath id="b8ff188720"><path d="M 465.199219 323.777344 L 528.957031 379.0625 L 442.054688 479.285156 L 378.296875 423.996094 Z M 465.199219 323.777344 " clip-rule="nonzero"/></clipPath><clipPath id="4c418f3c21"><path d="M 231 335 L 519 335 L 519 650 L 231 650 Z M 231 335 " clip-rule="nonzero"/></clipPath><clipPath id="35f35d4108"><path d="M 454.855469 335.707031 L 518.613281 390.992188 L 294.875 649.015625 L 231.117188 593.730469 Z M 454.855469 335.707031 " clip-rule="nonzero"/></clipPath><clipPath id="0fc15dc591"><path d="M 454.855469 335.707031 L 518.613281 390.992188 L 294.875 649.015625 L 231.117188 593.730469 Z M 454.855469 335.707031 " clip-rule="nonzero"/></clipPath><clipPath id="c9a3dcda4a"><path d="M 422 366 L 489 366 L 489 433 L 422 433 Z M 422 366 " clip-rule="nonzero"/></clipPath><clipPath id="cffbc17024"><path d="M 451.070312 340.835938 L 513.96875 395.375 L 459.429688 458.269531 L 396.53125 403.730469 Z M 451.070312 340.835938 " clip-rule="nonzero"/></clipPath><clipPath id="bdb3cac947"><path d="M 451.070312 340.835938 L 513.96875 395.375 L 459.429688 458.269531 L 396.53125 403.730469 Z M 451.070312 340.835938 " clip-rule="nonzero"/></clipPath><clipPath id="1ecf50ef88"><path d="M 464 278 L 566 278 L 566 380 L 464 380 Z M 464 278 " clip-rule="nonzero"/></clipPath><clipPath id="f35d090167"><path d="M 519.839844 261.371094 L 582.738281 315.910156 L 527.214844 379.941406 L 464.320312 325.402344 Z M 519.839844 261.371094 " clip-rule="nonzero"/></clipPath><clipPath id="d3450dc600"><path d="M 519.839844 261.371094 L 582.738281 315.910156 L 527.214844 379.941406 L 464.320312 325.402344 Z M 519.839844 261.371094 " clip-rule="nonzero"/></clipPath><clipPath id="c315d6d47c"><path d="M 374 421 L 443 421 L 443 484 L 374 484 Z M 374 421 " clip-rule="nonzero"/></clipPath><clipPath id="2fcd485267"><path d="M 382.980469 417.5 L 446.441406 472.53125 L 433.667969 487.261719 L 370.203125 432.230469 Z M 382.980469 417.5 " clip-rule="nonzero"/></clipPath><clipPath id="c30eaf197a"><path d="M 382.980469 417.5 L 446.441406 472.53125 L 433.667969 487.261719 L 370.203125 432.230469 Z M 382.980469 417.5 " clip-rule="nonzero"/></clipPath><clipPath id="4b5d87c771"><path d="M 308 457 L 413 457 L 413 561 L 308 561 Z M 308 457 " clip-rule="nonzero"/></clipPath><clipPath id="cbd55b9731"><path d="M 356.269531 452.40625 L 417.464844 505.46875 L 364.890625 566.101562 L 303.695312 513.035156 Z M 356.269531 452.40625 " clip-rule="nonzero"/></clipPath><clipPath id="55e0609091"><path d="M 356.269531 452.40625 L 417.464844 505.46875 L 364.890625 566.101562 L 303.695312 513.035156 Z M 356.269531 452.40625 " clip-rule="nonzero"/></clipPath><clipPath id="8af8197f9e"><path d="M 266 550 L 332 550 L 332 609 L 266 609 Z M 266 550 " clip-rule="nonzero"/></clipPath><clipPath id="d5d3b07620"><path d="M 290.105469 526.824219 L 352.4375 580.871094 L 307.726562 632.433594 L 245.394531 578.386719 Z M 290.105469 526.824219 " clip-rule="nonzero"/></clipPath><clipPath id="d2bb4d6473"><path d="M 290.105469 526.824219 L 352.4375 580.871094 L 307.726562 632.433594 L 245.394531 578.386719 Z M 290.105469 526.824219 " clip-rule="nonzero"/></clipPath><clipPath id="6e92caaa9a"><path d="M 201 610 L 279 610 L 279 690 L 201 690 Z M 201 610 " clip-rule="nonzero"/></clipPath><clipPath id="5c527b0b5a"><path d="M 235.6875 716.390625 L 171.65625 660.867188 L 219.808594 605.335938 L 283.839844 660.859375 Z M 235.6875 716.390625 " clip-rule="nonzero"/></clipPath><clipPath id="5d4f13f3e8"><path d="M 235.6875 716.390625 L 171.65625 660.867188 L 219.808594 605.335938 L 283.839844 660.859375 Z M 235.6875 716.390625 " clip-rule="nonzero"/></clipPath><clipPath id="f6c5f41010"><path d="M 78 196 L 300 196 L 300 689 L 78 689 Z M 78 196 " clip-rule="nonzero"/></clipPath><clipPath id="68b22bf3fa"><path d="M 417.445312 572.058594 L 181.21875 701.261719 L -39.398438 297.902344 L 196.824219 168.699219 Z M 417.445312 572.058594 " clip-rule="nonzero"/></clipPath><clipPath id="54ac6595e5"><path d="M 181.261719 701.238281 L 417.484375 572.035156 L 196.867188 168.675781 L -39.355469 297.878906 Z M 181.261719 701.238281 " clip-rule="nonzero"/></clipPath></defs><rect x="-61.5" width="738" fill="#ffffff" y="-88.5" height="1061.999994" fill-opacity="1"/><rect x="-61.5" width="738" fill="#ece5de" y="-88.5" height="1061.999994" fill-opacity="1"/><g clip-path="url(#a8c984cc35)"><g clip-path="url(#28a2cb2fd1)"><g clip-path="url(#b8ff188720)"><path fill="#ece5de" d="M 465.199219 323.777344 L 528.957031 379.0625 L 442.054688 479.285156 L 378.296875 423.996094 Z M 465.199219 323.777344 " fill-opacity="1" fill-rule="nonzero"/></g></g></g><g clip-path="url(#4c418f3c21)"><g clip-path="url(#35f35d4108)"><g clip-path="url(#0fc15dc591)"><path fill="#6e493e" d="M 454.855469 335.707031 L 518.613281 390.992188 L 294.875 649.015625 L 231.117188 593.730469 Z M 454.855469 335.707031 " fill-opacity="1" fill-rule="nonzero"/></g></g></g><g clip-path="url(#c9a3dcda4a)"><g clip-path="url(#cffbc17024)"><g clip-path="url(#bdb3cac947)"><path fill="#b3a197" d="M 482.488281 367.953125 C 482.140625 367.660156 481.769531 367.40625 481.375 367.1875 C 480.980469 366.972656 480.566406 366.792969 480.136719 366.65625 C 479.707031 366.519531 479.269531 366.429688 478.820312 366.378906 C 478.371094 366.328125 477.921875 366.320312 477.472656 366.359375 C 477.023438 366.398438 476.582031 366.480469 476.148438 366.605469 C 475.714844 366.730469 475.296875 366.898438 474.898438 367.105469 C 474.496094 367.3125 474.121094 367.558594 473.765625 367.839844 C 473.414062 368.121094 473.09375 368.433594 472.800781 368.777344 L 454.78125 389.558594 L 434 371.539062 C 433.660156 371.238281 433.292969 370.96875 432.902344 370.738281 C 432.507812 370.507812 432.097656 370.320312 431.667969 370.171875 C 431.234375 370.023438 430.792969 369.917969 430.34375 369.855469 C 429.890625 369.796875 429.4375 369.78125 428.984375 369.808594 C 428.527344 369.835938 428.082031 369.910156 427.640625 370.03125 C 427.199219 370.148438 426.777344 370.308594 426.367188 370.511719 C 425.960938 370.710938 425.574219 370.953125 425.214844 371.230469 C 424.855469 371.511719 424.527344 371.820312 424.226562 372.167969 C 423.929688 372.511719 423.667969 372.878906 423.441406 373.277344 C 423.21875 373.671875 423.035156 374.085938 422.890625 374.519531 C 422.75 374.953125 422.648438 375.394531 422.59375 375.847656 C 422.539062 376.300781 422.53125 376.753906 422.566406 377.207031 C 422.601562 377.664062 422.683594 378.109375 422.808594 378.546875 C 422.929688 378.984375 423.097656 379.40625 423.304688 379.8125 C 423.511719 380.21875 423.757812 380.597656 424.042969 380.957031 C 424.328125 381.3125 424.644531 381.636719 424.992188 381.929688 L 445.773438 399.949219 L 427.753906 420.730469 C 427.449219 421.070312 427.183594 421.4375 426.953125 421.828125 C 426.722656 422.222656 426.53125 422.636719 426.382812 423.066406 C 426.234375 423.496094 426.128906 423.9375 426.070312 424.390625 C 426.007812 424.839844 425.992188 425.292969 426.023438 425.75 C 426.050781 426.203125 426.125 426.652344 426.242188 427.089844 C 426.359375 427.53125 426.519531 427.953125 426.722656 428.363281 C 426.925781 428.769531 427.164062 429.15625 427.445312 429.515625 C 427.722656 429.875 428.035156 430.207031 428.378906 430.503906 C 428.722656 430.804688 429.09375 431.066406 429.488281 431.289062 C 429.886719 431.515625 430.300781 431.699219 430.734375 431.839844 C 431.167969 431.984375 431.609375 432.082031 432.0625 432.136719 C 432.511719 432.191406 432.96875 432.199219 433.421875 432.164062 C 433.875 432.128906 434.320312 432.050781 434.761719 431.925781 C 435.199219 431.800781 435.621094 431.632812 436.027344 431.425781 C 436.429688 431.21875 436.8125 430.972656 437.167969 430.6875 C 437.523438 430.40625 437.851562 430.089844 438.144531 429.738281 L 456.164062 408.960938 L 476.941406 426.980469 C 477.285156 427.28125 477.648438 427.550781 478.042969 427.78125 C 478.4375 428.011719 478.847656 428.199219 479.277344 428.347656 C 479.710938 428.496094 480.152344 428.601562 480.601562 428.664062 C 481.054688 428.722656 481.507812 428.738281 481.960938 428.710938 C 482.417969 428.679688 482.863281 428.605469 483.304688 428.488281 C 483.742188 428.371094 484.167969 428.210938 484.574219 428.007812 C 484.984375 427.804688 485.367188 427.566406 485.730469 427.285156 C 486.089844 427.007812 486.417969 426.695312 486.71875 426.351562 C 487.015625 426.007812 487.277344 425.636719 487.503906 425.242188 C 487.726562 424.84375 487.910156 424.429688 488.054688 424 C 488.195312 423.566406 488.292969 423.121094 488.347656 422.671875 C 488.402344 422.21875 488.414062 421.765625 488.378906 421.3125 C 488.34375 420.855469 488.261719 420.410156 488.136719 419.972656 C 488.011719 419.535156 487.847656 419.113281 487.640625 418.707031 C 487.429688 418.300781 487.183594 417.917969 486.902344 417.5625 C 486.617188 417.207031 486.300781 416.882812 485.953125 416.589844 L 465.171875 398.570312 L 483.191406 377.789062 C 483.496094 377.445312 483.765625 377.074219 484 376.679688 C 484.230469 376.28125 484.417969 375.863281 484.566406 375.429688 C 484.714844 374.996094 484.820312 374.546875 484.878906 374.09375 C 484.9375 373.636719 484.949219 373.179688 484.917969 372.722656 C 484.882812 372.261719 484.804688 371.8125 484.683594 371.367188 C 484.558594 370.925781 484.394531 370.5 484.183594 370.089844 C 483.976562 369.679688 483.730469 369.296875 483.441406 368.933594 C 483.15625 368.574219 482.839844 368.246094 482.488281 367.953125 Z M 482.488281 367.953125 " fill-opacity="1" fill-rule="nonzero"/></g></g></g><g clip-path="url(#1ecf50ef88)"><g clip-path="url(#f35d090167)"><g clip-path="url(#d3450dc600)"><path fill="#6e493e" d="M 527.328125 380.074219 L 464.300781 325.425781 L 492.511719 292.894531 C 507.601562 275.488281 533.945312 273.613281 551.347656 288.707031 C 568.753906 303.796875 570.628906 330.140625 555.535156 347.542969 Z M 527.328125 380.074219 " fill-opacity="1" fill-rule="nonzero"/></g></g></g><g clip-path="url(#c315d6d47c)"><g clip-path="url(#2fcd485267)"><g clip-path="url(#c30eaf197a)"><path fill="#b3a197" d="M 440.238281 479.976562 C 436.808594 483.933594 430.824219 484.359375 426.867188 480.925781 L 377.605469 438.210938 C 373.648438 434.78125 373.222656 428.796875 376.652344 424.839844 C 380.085938 420.886719 386.070312 420.457031 390.027344 423.890625 L 439.285156 466.605469 C 443.242188 470.035156 443.667969 476.019531 440.238281 479.976562 Z M 440.238281 479.976562 " fill-opacity="1" fill-rule="nonzero"/></g></g></g><g clip-path="url(#4b5d87c771)"><g clip-path="url(#cbd55b9731)"><g clip-path="url(#55e0609091)"><path fill="#b3a197" d="M 368.6875 516.871094 C 368.664062 516.519531 368.910156 516.234375 369.261719 516.210938 L 408.535156 513.414062 C 410.660156 513.261719 412.304688 511.367188 412.152344 509.246094 L 411.722656 501.984375 C 411.648438 500.925781 411.136719 499.984375 410.378906 499.324219 C 409.621094 498.667969 408.617188 498.296875 407.554688 498.371094 L 368.191406 501.171875 C 368.015625 501.183594 367.832031 501.109375 367.738281 501.027344 C 367.644531 500.945312 367.542969 500.773438 367.53125 500.597656 L 364.730469 461.234375 C 364.652344 460.175781 364.140625 459.234375 363.382812 458.574219 C 362.625 457.917969 361.621094 457.546875 360.558594 457.621094 L 353.304688 458.136719 C 351.183594 458.289062 349.539062 460.183594 349.691406 462.304688 L 352.488281 501.578125 C 352.511719 501.933594 352.265625 502.21875 351.910156 502.242188 L 312.554688 505.132812 C 310.433594 505.285156 308.789062 507.179688 308.941406 509.300781 L 309.457031 516.554688 C 309.53125 517.617188 310.042969 518.558594 310.800781 519.214844 C 311.558594 519.871094 312.566406 520.246094 313.625 520.167969 L 352.898438 517.375 C 353.078125 517.363281 353.257812 517.4375 353.355469 517.519531 C 353.449219 517.601562 353.550781 517.773438 353.5625 517.949219 L 356.359375 557.222656 C 356.433594 558.285156 356.945312 559.226562 357.703125 559.882812 C 358.460938 560.539062 359.464844 560.914062 360.527344 560.839844 L 367.78125 560.320312 C 369.902344 560.171875 371.546875 558.277344 371.394531 556.152344 Z M 368.6875 516.871094 " fill-opacity="1" fill-rule="nonzero"/></g></g></g><g clip-path="url(#8af8197f9e)"><g clip-path="url(#d5d3b07620)"><g clip-path="url(#d2bb4d6473)"><path fill="#b3a197" d="M 321.023438 553.960938 C 320.6875 553.667969 320.324219 553.414062 319.9375 553.191406 C 319.550781 552.96875 319.144531 552.789062 318.71875 552.648438 C 318.296875 552.507812 317.863281 552.410156 317.421875 552.351562 C 316.976562 552.296875 316.53125 552.285156 316.085938 552.316406 C 315.640625 552.347656 315.203125 552.421875 314.773438 552.542969 C 314.34375 552.660156 313.929688 552.816406 313.527344 553.019531 C 313.128906 553.21875 312.753906 553.453125 312.402344 553.726562 C 312.046875 554 311.726562 554.308594 311.433594 554.644531 C 311.140625 554.980469 310.882812 555.34375 310.664062 555.734375 C 310.441406 556.121094 310.261719 556.527344 310.117188 556.949219 C 309.976562 557.375 309.878906 557.804688 309.824219 558.25 C 309.769531 558.691406 309.753906 559.136719 309.789062 559.582031 C 309.820312 560.027344 309.894531 560.464844 310.011719 560.894531 C 310.128906 561.328125 310.289062 561.742188 310.488281 562.140625 C 310.6875 562.539062 310.925781 562.917969 311.199219 563.269531 C 311.472656 563.621094 311.777344 563.945312 312.117188 564.238281 C 312.453125 564.527344 312.816406 564.785156 313.203125 565.007812 C 313.589844 565.226562 313.996094 565.410156 314.421875 565.550781 C 314.84375 565.691406 315.277344 565.789062 315.71875 565.847656 C 316.164062 565.902344 316.609375 565.914062 317.054688 565.882812 C 317.5 565.851562 317.9375 565.777344 318.367188 565.65625 C 318.796875 565.539062 319.210938 565.378906 319.613281 565.179688 C 320.011719 564.980469 320.386719 564.746094 320.738281 564.46875 C 321.09375 564.195312 321.414062 563.890625 321.707031 563.554688 C 322 563.214844 322.257812 562.855469 322.476562 562.464844 C 322.699219 562.078125 322.878906 561.671875 323.019531 561.25 C 323.164062 560.824219 323.261719 560.390625 323.316406 559.949219 C 323.371094 559.507812 323.382812 559.0625 323.351562 558.617188 C 323.320312 558.171875 323.246094 557.734375 323.128906 557.300781 C 323.011719 556.871094 322.851562 556.457031 322.652344 556.058594 C 322.453125 555.660156 322.214844 555.28125 321.941406 554.929688 C 321.667969 554.578125 321.363281 554.253906 321.023438 553.960938 Z M 277.519531 552.238281 C 277.183594 551.9375 276.820312 551.675781 276.433594 551.445312 C 276.042969 551.21875 275.636719 551.03125 275.210938 550.882812 C 274.785156 550.738281 274.347656 550.632812 273.902344 550.574219 C 273.453125 550.511719 273.007812 550.496094 272.558594 550.527344 C 272.105469 550.554688 271.664062 550.628906 271.230469 550.742188 C 270.792969 550.859375 270.375 551.019531 269.972656 551.21875 C 269.566406 551.417969 269.1875 551.65625 268.832031 551.933594 C 268.476562 552.207031 268.148438 552.515625 267.855469 552.855469 C 267.558594 553.199219 267.300781 553.5625 267.078125 553.957031 C 266.855469 554.347656 266.671875 554.757812 266.53125 555.183594 C 266.390625 555.613281 266.292969 556.050781 266.242188 556.5 C 266.1875 556.945312 266.175781 557.394531 266.210938 557.84375 C 266.246094 558.292969 266.328125 558.734375 266.449219 559.167969 C 266.570312 559.601562 266.738281 560.019531 266.941406 560.417969 C 267.148438 560.820312 267.390625 561.195312 267.671875 561.546875 C 267.953125 561.902344 268.265625 562.222656 268.609375 562.511719 L 319.984375 607.058594 C 320.320312 607.359375 320.683594 607.625 321.070312 607.851562 C 321.460938 608.078125 321.867188 608.265625 322.292969 608.414062 C 322.71875 608.5625 323.15625 608.664062 323.601562 608.726562 C 324.046875 608.785156 324.496094 608.800781 324.945312 608.773438 C 325.394531 608.742188 325.835938 608.671875 326.273438 608.554688 C 326.707031 608.4375 327.128906 608.277344 327.53125 608.078125 C 327.933594 607.878906 328.316406 607.640625 328.671875 607.363281 C 329.027344 607.089844 329.351562 606.78125 329.648438 606.441406 C 329.945312 606.101562 330.203125 605.734375 330.425781 605.34375 C 330.648438 604.949219 330.828125 604.539062 330.96875 604.113281 C 331.109375 603.683594 331.207031 603.246094 331.261719 602.800781 C 331.316406 602.351562 331.324219 601.902344 331.289062 601.453125 C 331.253906 601.003906 331.175781 600.5625 331.054688 600.128906 C 330.929688 599.695312 330.765625 599.28125 330.558594 598.878906 C 330.355469 598.476562 330.113281 598.101562 329.832031 597.75 C 329.550781 597.398438 329.238281 597.074219 328.894531 596.785156 Z M 285.386719 595.0625 C 285.050781 594.769531 284.6875 594.511719 284.300781 594.289062 C 283.910156 594.070312 283.503906 593.886719 283.082031 593.746094 C 282.660156 593.605469 282.226562 593.507812 281.78125 593.453125 C 281.339844 593.394531 280.894531 593.382812 280.449219 593.414062 C 280.003906 593.449219 279.566406 593.523438 279.136719 593.640625 C 278.707031 593.757812 278.289062 593.917969 277.890625 594.117188 C 277.492188 594.316406 277.117188 594.554688 276.761719 594.828125 C 276.410156 595.101562 276.085938 595.40625 275.796875 595.742188 C 275.503906 596.082031 275.246094 596.445312 275.023438 596.832031 C 274.804688 597.21875 274.621094 597.625 274.480469 598.046875 C 274.339844 598.472656 274.242188 598.90625 274.1875 599.347656 C 274.128906 599.792969 274.117188 600.234375 274.148438 600.679688 C 274.179688 601.125 274.257812 601.5625 274.375 601.996094 C 274.492188 602.425781 274.652344 602.839844 274.851562 603.238281 C 275.050781 603.640625 275.289062 604.015625 275.5625 604.367188 C 275.835938 604.71875 276.140625 605.042969 276.476562 605.335938 C 276.816406 605.628906 277.175781 605.886719 277.566406 606.105469 C 277.953125 606.328125 278.359375 606.507812 278.78125 606.648438 C 279.207031 606.789062 279.640625 606.890625 280.082031 606.945312 C 280.527344 607 280.96875 607.011719 281.414062 606.980469 C 281.859375 606.949219 282.296875 606.875 282.730469 606.757812 C 283.160156 606.636719 283.574219 606.480469 283.972656 606.28125 C 284.375 606.082031 284.75 605.84375 285.101562 605.570312 C 285.453125 605.296875 285.777344 604.992188 286.070312 604.652344 C 286.363281 604.316406 286.617188 603.953125 286.839844 603.566406 C 287.0625 603.175781 287.242188 602.769531 287.382812 602.347656 C 287.523438 601.925781 287.625 601.492188 287.679688 601.046875 C 287.734375 600.605469 287.746094 600.160156 287.714844 599.714844 C 287.683594 599.269531 287.609375 598.832031 287.492188 598.402344 C 287.371094 597.972656 287.214844 597.554688 287.015625 597.15625 C 286.8125 596.757812 286.578125 596.382812 286.304688 596.027344 C 286.03125 595.675781 285.722656 595.351562 285.386719 595.0625 Z M 285.386719 595.0625 " fill-opacity="1" fill-rule="nonzero"/></g></g></g><g clip-path="url(#6e92caaa9a)"><g clip-path="url(#5c527b0b5a)"><g clip-path="url(#5d4f13f3e8)"><path fill="#6e493e" d="M 212.667969 689.09375 C 206.671875 691.167969 200.679688 685.972656 201.882812 679.742188 L 207.972656 648.21875 L 214.058594 616.695312 C 215.261719 610.46875 222.753906 607.878906 227.546875 612.03125 L 276.0625 654.101562 C 280.851562 658.253906 279.351562 666.039062 273.355469 668.113281 L 243.011719 678.601562 Z M 212.667969 689.09375 " fill-opacity="1" fill-rule="nonzero"/></g></g></g><g clip-path="url(#f6c5f41010)"><g clip-path="url(#68b22bf3fa)"><g clip-path="url(#54ac6595e5)"><path fill="#b3a197" d="M 141.796875 198.726562 L 142.242188 200.3125 C 168.734375 192.84375 208.066406 202.183594 231.8125 240.347656 C 250.976562 271.136719 250.847656 299.753906 250.734375 325 C 250.722656 327.824219 250.710938 330.625 250.722656 333.394531 C 232.78125 326.933594 210.945312 323.476562 188.25 323.578125 C 163.042969 323.691406 139.46875 328.070312 121.867188 335.902344 C 112.816406 339.933594 98.761719 349.597656 88.949219 363.5625 C 80.738281 375.25 72.949219 393.933594 82.46875 416.570312 C 89.300781 432.8125 100.160156 444.378906 115.675781 451.925781 C 129.179688 458.496094 144.519531 461.183594 158.058594 463.558594 C 175.238281 466.570312 190.078125 469.175781 198.335938 478.261719 C 214.550781 496.113281 198.789062 512.058594 178.835938 532.242188 C 154.273438 557.09375 123.703125 588.015625 145.699219 634.5625 C 151.347656 646.507812 159.449219 657.210938 169.78125 666.375 C 179.613281 675.09375 191.480469 682.433594 205.050781 688.191406 L 205.695312 686.675781 C 178.246094 675.023438 158.015625 656.761719 147.191406 633.855469 C 125.683594 588.355469 155.804688 557.886719 180.007812 533.402344 C 199.761719 513.421875 216.820312 496.164062 199.554688 477.15625 C 190.917969 467.648438 175.824219 465 158.339844 461.9375 C 130.503906 457.054688 98.953125 451.519531 83.988281 415.933594 C 67.566406 376.882812 102.871094 346.164062 122.539062 337.410156 C 157.628906 321.785156 212.289062 321.085938 250.738281 335.148438 C 250.871094 348.308594 251.773438 360.753906 256.4375 372.035156 C 264.210938 390.832031 277.210938 396.9375 285.984375 396.453125 C 290.511719 396.203125 294.621094 393.984375 296.964844 390.519531 C 298.863281 387.722656 300.550781 382.671875 297.8125 374.523438 C 295.023438 366.226562 290.046875 358.691406 283.027344 352.125 C 276.527344 346.042969 268.265625 340.777344 258.464844 336.476562 C 256.496094 335.609375 254.460938 334.785156 252.375 334 C 252.355469 331.039062 252.367188 328.039062 252.382812 325.007812 C 252.496094 299.539062 252.625 270.671875 233.214844 239.476562 C 221.972656 221.414062 206.238281 208.265625 187.714844 201.453125 C 172.382812 195.816406 155.644531 194.820312 141.796875 198.726562 Z M 291.570312 393.210938 C 289.882812 394.132812 287.9375 394.691406 285.890625 394.804688 C 277.660156 395.261719 265.402344 389.40625 257.960938 371.40625 C 253.480469 360.570312 252.550781 348.523438 252.394531 335.769531 C 254.234375 336.472656 256.042969 337.210938 257.804688 337.984375 C 277.746094 346.742188 291.042969 359.558594 296.25 375.050781 C 298.246094 380.992188 298.023438 386.023438 295.601562 389.597656 C 294.589844 391.089844 293.199219 392.320312 291.570312 393.210938 Z M 291.570312 393.210938 " fill-opacity="1" fill-rule="nonzero"/></g></g></g></svg>